<?xml version="1.0" standalone="no"?>
<!DOCTYPE svg PUBLIC "-//W3C//DTD SVG 20010904//EN"
 "http://www.w3.org/TR/2001/REC-SVG-20010904/DTD/svg10.dtd">
<svg version="1.0" xmlns="http://www.w3.org/2000/svg"
 width="260.000000pt" height="260.000000pt" viewBox="0 0 260.000000 260.000000"
 preserveAspectRatio="xMidYMid meet">
<metadata>
Created by potrace 1.14, written by Peter Selinger 2001-2017
</metadata>
<g transform="translate(0.000000,260.000000) scale(0.100000,-0.100000)"
fill="#000000" stroke="none">
<path d="M1250 2443 c0 -6 -16 -9 -35 -8 -19 1 -35 -3 -35 -9 0 -6 -5 -4 -10
4 -5 8 -10 10 -10 4 0 -7 -15 -14 -32 -17 -82 -13 -99 -17 -118 -27 -11 -6
-20 -8 -20 -6 0 3 -20 -3 -44 -14 -24 -10 -47 -16 -50 -13 -3 4 -6 1 -6 -5 0
-7 -5 -12 -11 -12 -13 0 -82 -31 -89 -40 -3 -3 -20 -12 -37 -19 -18 -8 -33
-17 -33 -22 0 -5 -6 -9 -14 -9 -7 0 -25 -11 -40 -25 -15 -14 -31 -25 -37 -25
-5 0 -12 -7 -15 -15 -4 -8 -10 -15 -16 -15 -9 0 -148 -134 -148 -143 0 -3 -13
-21 -30 -39 -17 -18 -30 -37 -30 -43 0 -6 -9 -17 -19 -25 -11 -7 -18 -17 -15
-22 3 -4 -2 -15 -10 -24 -9 -9 -14 -19 -12 -23 3 -4 -4 -14 -15 -21 -10 -8
-19 -25 -19 -37 0 -13 -5 -23 -12 -23 -6 0 -8 -3 -5 -7 4 -3 0 -17 -8 -30 -9
-13 -13 -23 -9 -23 4 0 1 -7 -6 -15 -7 -8 -9 -15 -5 -15 4 0 2 -7 -5 -15 -7
-8 -9 -15 -5 -15 4 0 3 -6 -2 -12 -6 -7 -9 -21 -8 -30 2 -10 -1 -18 -7 -18 -6
0 -8 -6 -5 -14 3 -8 3 -17 -1 -20 -7 -8 -11 -26 -17 -81 -2 -22 -5 -40 -5 -40
-3 0 -8 -112 -9 -180 0 -102 3 -145 10 -145 4 0 6 -16 5 -36 -1 -21 4 -38 11
-41 9 -4 10 -10 2 -24 -7 -15 -6 -21 6 -25 8 -3 12 -10 9 -15 -3 -6 0 -16 6
-24 6 -8 9 -19 5 -25 -3 -5 -1 -10 5 -10 7 0 10 -7 6 -15 -3 -8 0 -15 6 -15 6
0 9 -3 5 -6 -3 -3 3 -22 14 -41 11 -20 18 -37 15 -40 -2 -3 4 -13 15 -24 11
-11 17 -24 14 -29 -4 -6 -2 -10 4 -10 5 0 12 -8 16 -19 3 -10 14 -29 25 -41
11 -12 17 -27 13 -33 -3 -6 -1 -7 5 -3 7 4 12 2 12 -3 0 -10 25 -43 58 -77 6
-7 12 -15 12 -18 0 -8 102 -106 111 -106 5 0 9 -7 9 -16 0 -8 4 -13 9 -10 5 3
12 -1 15 -10 4 -9 9 -14 13 -11 3 4 17 -5 30 -19 13 -15 26 -24 29 -21 3 3 14
-2 24 -11 35 -32 45 -38 98 -62 28 -13 52 -26 52 -30 0 -3 10 -7 22 -7 13 -1
24 -7 26 -13 2 -5 8 -8 13 -4 5 3 9 0 9 -5 0 -6 5 -11 11 -11 5 0 7 5 4 10 -3
6 10 0 30 -11 20 -12 39 -19 42 -16 3 4 13 2 22 -2 19 -11 67 -20 136 -28 28
-3 52 -9 53 -15 2 -5 11 -3 19 3 9 8 17 9 21 3 10 -13 35 -17 27 -4 -8 13 8
13 22 -1 8 -8 13 -8 17 0 5 8 13 8 28 0 11 -6 18 -7 14 -1 -3 6 14 9 44 8 28
-2 50 0 50 4 0 3 9 6 20 7 13 1 18 -3 14 -10 -3 -7 2 -3 10 7 12 15 16 16 16
5 0 -8 3 -10 8 -4 4 6 12 11 18 12 6 1 24 5 40 8 16 4 35 7 42 7 6 1 12 4 12
8 0 4 7 7 15 8 8 1 22 3 30 4 8 1 15 5 15 10 0 4 3 7 8 6 4 0 18 4 32 11 23
11 23 11 3 7 -13 -2 -23 1 -23 6 0 7 -4 7 -13 0 -8 -7 -18 -7 -27 -2 -8 5 -19
6 -25 2 -14 -9 -55 -10 -55 -2 0 4 -7 7 -15 7 -8 0 -15 -5 -15 -11 0 -7 -3 -7
-8 -1 -4 6 -16 11 -27 12 -27 2 -90 11 -90 13 0 1 -11 3 -24 6 -14 2 -31 10
-40 17 -12 10 -13 9 -6 -3 7 -13 6 -13 -7 -2 -15 12 -47 23 -75 24 -7 1 -13 5
-13 9 0 4 -13 10 -30 14 -16 4 -30 11 -30 17 0 6 -3 9 -6 5 -4 -3 -13 1 -21 9
-8 8 -19 12 -24 9 -5 -4 -9 -1 -9 6 0 7 -3 10 -6 6 -4 -3 -15 4 -26 16 -11 12
-17 15 -13 7 4 -9 0 -7 -9 4 -8 10 -19 15 -25 11 -6 -3 -11 1 -11 10 0 9 -5
13 -10 10 -5 -3 -10 -1 -10 4 0 6 -6 11 -13 11 -7 0 -18 9 -25 20 -7 11 -17
20 -22 20 -6 0 -29 18 -51 40 -22 22 -44 40 -48 40 -4 0 -14 11 -21 25 -7 14
-17 25 -21 25 -10 0 -27 18 -59 59 -14 18 -35 44 -47 57 -13 12 -23 28 -23 33
0 6 -6 14 -14 18 -8 4 -16 15 -18 23 -2 8 -11 22 -21 31 -10 10 -16 23 -15 30
2 8 -3 13 -9 12 -7 -2 -12 0 -11 5 1 4 -3 17 -10 30 -7 12 -9 22 -5 22 4 0 4
4 -2 8 -15 10 -35 49 -35 67 0 8 -5 15 -11 15 -5 0 -7 5 -4 10 3 6 2 10 -3 10
-6 0 -8 9 -5 20 3 11 0 20 -6 20 -6 0 -11 9 -11 20 0 11 -3 20 -7 20 -5 0 -9
10 -9 23 -3 41 -8 67 -14 67 -3 0 -6 18 -8 40 -1 22 -7 51 -12 64 -5 15 -5 27
3 35 7 7 7 11 1 11 -13 0 -12 183 1 192 6 5 5 8 -3 8 -10 0 -10 5 -2 20 6 10
10 23 9 27 -4 25 2 53 11 48 7 -4 7 2 0 19 -6 16 -6 27 0 31 6 4 10 17 10 31
0 13 4 24 8 24 7 0 11 16 14 58 1 6 4 12 8 12 3 0 14 23 24 51 10 28 25 53 32
56 8 3 14 11 14 19 0 8 8 23 18 34 9 11 17 26 17 33 1 7 6 11 13 9 7 -1 11 2
10 7 -2 5 8 18 21 30 13 12 20 21 16 21 -5 0 5 11 23 23 17 13 29 27 25 30 -3
4 0 7 8 7 8 0 25 12 38 25 13 14 26 24 28 21 2 -2 16 7 30 20 14 13 29 21 34
18 5 -3 9 0 9 5 0 6 8 11 17 11 9 0 25 8 36 18 15 12 18 13 12 2 -8 -13 -7
-13 9 0 18 14 37 21 69 23 9 1 17 5 17 10 0 4 4 5 10 2 5 -3 19 -1 30 5 13 7
20 7 20 1 0 -7 9 -7 25 -1 17 6 25 6 25 -1 0 -6 5 -7 11 -4 18 12 59 13 66 2
3 -6 1 -7 -5 -3 -5 3 -12 2 -14 -4 -3 -9 -35 -20 -65 -22 -7 -1 -13 -5 -13 -9
0 -4 -11 -10 -25 -13 -14 -4 -25 -11 -25 -16 0 -5 -6 -7 -14 -4 -7 3 -20 -1
-27 -8 -19 -18 -69 -50 -69 -43 0 5 -29 -17 -55 -42 -8 -7 -17 -13 -22 -13 -4
0 -26 -18 -47 -40 -22 -22 -43 -40 -48 -40 -4 0 -8 -7 -8 -16 0 -8 -4 -12 -10
-9 -5 3 -10 2 -10 -4 0 -6 -13 -24 -29 -40 -16 -16 -26 -32 -23 -35 3 -3 0 -6
-6 -6 -7 0 -12 -5 -12 -12 0 -6 -6 -19 -14 -27 -36 -42 -89 -163 -103 -233 -3
-15 -9 -26 -13 -23 -5 3 -6 -4 -3 -14 3 -11 -2 -34 -10 -51 -9 -17 -12 -28 -6
-25 5 4 6 -8 2 -27 -12 -55 -8 -235 6 -252 8 -10 9 -16 1 -21 -8 -5 -7 -11 2
-23 11 -13 11 -14 -2 -7 -12 7 -13 6 -3 -6 6 -8 17 -37 24 -64 7 -28 21 -65
31 -83 10 -19 14 -31 9 -28 -5 3 0 -13 11 -36 11 -24 25 -45 29 -46 5 -2 7 -8
3 -13 -3 -5 0 -9 5 -9 6 0 11 -3 10 -7 -3 -19 14 -52 24 -46 6 4 8 0 4 -10 -4
-11 -1 -17 9 -17 8 0 13 -4 10 -9 -3 -5 8 -24 24 -42 16 -19 32 -42 36 -52 3
-9 10 -15 15 -12 5 4 9 0 9 -8 0 -8 7 -18 16 -21 9 -3 12 -11 8 -18 -4 -7 -4
-10 0 -6 9 7 62 -42 59 -54 -2 -4 6 -10 17 -13 11 -4 20 -10 20 -15 0 -5 9
-12 20 -15 11 -3 20 -13 20 -21 0 -8 4 -13 8 -10 5 3 14 -4 22 -14 8 -10 17
-17 22 -14 4 3 8 0 8 -5 0 -6 7 -11 15 -11 9 0 18 -7 21 -15 4 -8 10 -12 15
-9 5 3 9 2 9 -3 0 -9 48 -33 68 -33 7 0 10 -4 7 -10 -3 -5 3 -10 14 -10 12 0
21 -5 21 -10 0 -6 3 -10 8 -9 17 3 52 -14 52 -25 0 -6 4 -4 10 4 8 13 10 13
15 -1 3 -8 17 -16 32 -17 15 -1 29 -5 32 -10 7 -8 20 -11 56 -14 14 -1 25 -6
25 -10 0 -4 8 -7 18 -6 9 0 28 -3 42 -7 14 -4 48 -7 77 -7 31 -1 50 -5 46 -10
-3 -6 4 -5 16 1 16 9 21 9 21 0 0 -7 5 -8 13 -3 6 5 35 9 62 8 28 -1 55 2 60
5 6 4 20 6 33 5 12 0 22 3 22 9 0 5 7 4 15 -3 12 -10 15 -10 15 0 0 7 7 10 15
6 8 -3 15 -2 15 3 0 4 6 8 13 8 24 1 42 8 54 23 7 8 13 11 13 6 0 -5 10 2 23
15 12 13 38 36 57 51 19 14 45 37 57 50 62 64 83 89 83 98 0 4 3 10 8 12 11 5
62 83 62 96 0 7 5 12 10 12 6 0 10 7 10 15 0 8 5 15 12 15 6 0 9 3 5 6 -3 4 0
18 7 33 11 21 11 28 1 38 -7 6 -16 9 -19 6 -3 -4 -6 -1 -6 5 0 7 -7 12 -15 12
-9 0 -18 7 -21 15 -4 8 -15 15 -25 15 -10 0 -19 5 -19 10 0 6 -7 10 -15 10 -8
0 -15 5 -15 10 0 6 -7 10 -15 10 -8 0 -15 5 -15 11 0 5 -4 7 -10 4 -5 -3 -10
-1 -10 5 0 6 -4 8 -10 5 -6 -3 -10 -2 -10 2 0 5 -17 17 -37 28 -21 11 -41 24
-45 30 -5 6 -8 2 -8 -7 0 -10 -4 -18 -10 -18 -5 0 -9 -3 -8 -7 4 -12 -42 -83
-53 -83 -6 0 -7 -5 -4 -10 3 -6 1 -10 -4 -10 -6 0 -11 -4 -11 -9 0 -5 -25 -34
-55 -66 -30 -31 -55 -54 -55 -51 0 3 -9 -3 -20 -14 -11 -11 -27 -20 -36 -20
-8 0 -12 -4 -9 -10 3 -5 -3 -10 -14 -10 -11 0 -26 -7 -34 -15 -8 -8 -17 -11
-21 -8 -3 4 -6 2 -6 -3 0 -5 -10 -10 -22 -11 -11 -1 -24 -6 -27 -10 -3 -4 -11
-9 -17 -10 -11 -2 -47 -9 -94 -19 -46 -10 -155 -10 -174 -1 -14 7 -17 6 -10
-5 6 -11 5 -11 -9 1 -13 10 -17 10 -17 1 0 -9 -3 -10 -14 -1 -7 6 -25 12 -40
13 -14 1 -26 6 -26 11 0 4 -4 6 -9 2 -5 -3 -13 0 -16 6 -4 5 -13 8 -21 5 -7
-3 -18 3 -23 12 -8 14 -11 14 -11 2 -1 -12 -3 -12 -14 2 -7 10 -16 15 -19 11
-4 -3 -9 2 -13 11 -3 9 -10 13 -16 10 -5 -3 -15 1 -21 9 -7 9 -18 17 -26 19
-8 2 -31 19 -51 38 -20 19 -45 41 -56 48 -10 7 -12 10 -4 6 8 -3 -2 9 -22 28
-21 19 -38 40 -38 46 0 7 -5 12 -11 12 -5 0 -8 4 -5 9 3 5 -1 14 -9 21 -8 7
-15 19 -15 27 0 8 -5 11 -12 7 -6 -4 -9 -3 -5 2 3 5 -3 27 -14 49 -10 22 -21
55 -25 72 -4 21 -10 30 -18 26 -8 -5 -8 -3 0 8 7 8 8 22 3 34 -4 11 -8 36 -8
55 -1 20 -7 42 -13 49 -10 10 -10 12 -1 7 9 -5 12 6 9 44 -1 27 1 50 5 50 4 0
6 8 5 18 -2 9 2 20 8 24 8 5 7 8 -2 8 -10 0 -10 5 -2 21 7 11 9 23 6 26 -3 4
-1 12 5 20 6 7 8 13 4 13 -4 0 -2 7 5 15 6 8 9 18 6 24 -3 5 -3 11 2 13 4 1
20 29 35 61 15 31 31 57 37 57 5 0 9 3 8 8 0 4 4 18 10 32 6 14 11 21 11 16 1
-6 12 4 24 22 13 17 27 29 30 25 4 -3 7 1 7 11 0 9 5 14 10 11 6 -3 10 1 10 9
0 9 6 16 13 16 6 0 23 12 36 25 13 14 26 24 28 21 2 -2 16 7 30 20 14 13 29
21 33 19 5 -3 10 -1 12 4 1 5 12 11 23 13 11 1 26 9 33 16 7 6 26 12 41 12 15
0 31 4 36 9 6 6 30 11 55 13 25 2 50 7 56 11 6 3 14 3 18 0 10 -11 56 -11 62
-1 3 4 11 5 17 1 7 -4 28 -9 47 -10 64 -6 70 -7 70 -16 0 -5 7 -7 15 -3 8 3
15 0 15 -6 0 -6 3 -8 7 -5 3 4 13 1 21 -6 13 -10 14 -9 7 2 -5 9 3 7 21 -5 33
-23 65 -38 77 -35 4 0 10 -6 13 -14 4 -8 15 -15 26 -15 10 0 16 -4 13 -10 -3
-5 1 -10 9 -10 9 0 16 -4 16 -10 0 -5 4 -10 9 -10 5 0 23 -13 41 -30 18 -16
29 -30 24 -30 -4 0 6 -11 24 -23 17 -13 30 -26 28 -28 -2 -2 6 -13 17 -24 11
-11 17 -14 13 -7 -5 8 -1 12 11 12 10 0 25 9 33 20 8 11 20 20 27 20 7 0 13 5
13 11 0 5 5 7 10 4 6 -3 10 1 10 9 0 9 6 15 13 13 6 -1 11 4 9 11 -1 8 2 11 7
8 5 -4 16 1 24 9 9 8 18 15 22 15 3 0 17 11 31 25 14 14 30 22 36 19 7 -4 8
-2 4 4 -4 8 3 16 19 22 23 9 24 12 14 32 -13 25 -25 40 -56 74 -12 13 -20 24
-16 24 3 0 -9 13 -26 29 -17 16 -31 34 -31 41 0 6 -3 9 -7 7 -10 -5 -43 30
-35 37 3 3 1 6 -4 6 -10 0 -53 31 -83 60 -23 21 -74 54 -86 55 -5 1 -9 7 -7
14 2 8 -3 11 -11 8 -8 -3 -24 3 -35 14 -12 10 -28 19 -37 19 -8 0 -15 5 -15
12 0 6 -3 9 -6 5 -4 -3 -13 1 -21 9 -9 8 -21 13 -29 10 -7 -3 -18 2 -25 10 -7
8 -18 13 -26 10 -7 -3 -13 -1 -13 5 0 6 -6 9 -14 6 -8 -3 -16 -2 -18 3 -2 4
-16 10 -33 13 -16 3 -43 10 -60 17 -16 6 -31 11 -33 10 -1 -1 -21 2 -45 6 -23
4 -60 8 -82 8 -22 1 -46 5 -52 9 -8 5 -13 3 -13 -3 0 -8 -6 -8 -20 0 -14 8
-20 8 -20 0 0 -7 -6 -8 -18 -1 -11 6 -24 6 -32 1 -9 -5 -19 -5 -27 2 -8 6 -13
7 -13 1z"/>
</g>
</svg>
